<svg xmlns="http://www.w3.org/2000/svg" viewBox="0 0 1200 630" role="img" aria-label="Welness Jollof — Evidence-led wellness, pharmacist-backed">
  <defs>
    <linearGradient id="wj-og-bg" x1="0" y1="0" x2="1" y2="1">
      <stop offset="0%" stop-color="#FAFAF7"/>
      <stop offset="100%" stop-color="#E8F2F0"/>
    </linearGradient>
    <linearGradient id="wj-og-mortar" x1="0" y1="0" x2="1" y2="1">
      <stop offset="0%" stop-color="#0F766E"/>
      <stop offset="100%" stop-color="#065F5C"/>
    </linearGradient>
  </defs>
  <rect width="1200" height="630" fill="url(#wj-og-bg)"/>
  <g transform="translate(120, 180) scale(2.4)">
    <rect x="55" y="6" width="10" height="50" rx="4" fill="#065F5C" transform="rotate(20 60 30)"/>
    <ellipse cx="65" cy="6" rx="7" ry="4" fill="#0A4A47" transform="rotate(20 60 30)"/>
    <path d="M 8 60 Q 8 100, 50 105 Q 92 100, 92 60 Z" fill="url(#wj-og-mortar)"/>
    <ellipse cx="50" cy="60" rx="42" ry="8" fill="#0A4A47"/>
    <ellipse cx="50" cy="60" rx="40" ry="6" fill="#065F5C"/>
    <path d="M 30 75 Q 45 65, 55 80 Q 50 90, 38 88 Q 30 85, 30 75 Z" fill="#FAFAF7"/>
  </g>
  <g font-family="Georgia, 'Times New Roman', serif">
    <text x="450" y="280" font-size="92" font-weight="700" fill="#0F766E">Welness Jollof</text>
    <text x="450" y="340" font-size="34" font-weight="400" font-style="italic" fill="#333333">Evidence-led wellness, pharmacist-backed.</text>
    <text x="120" y="580" font-size="24" font-weight="500" fill="#0F766E" opacity="0.8">welnessjollof.com</text>
  </g>
</svg>
