<svg xmlns="http://www.w3.org/2000/svg" viewBox="0 0 240 240" role="img" aria-label="brain">
  <g fill="none" stroke="currentColor" stroke-width="3" stroke-linecap="round" stroke-linejoin="round">
    <path d="M118 56 C 90 54 64 72 60 100 C 56 118 64 134 72 144 C 68 156 74 172 90 178 C 100 196 124 202 140 192 C 142 196 148 198 154 196 C 168 198 180 188 180 174 C 192 170 196 156 190 144 C 198 132 196 114 184 104 C 184 86 168 72 150 72 C 144 60 132 54 118 56 Z"/>
    <path d="M118 56 C 116 80 116 108 118 134 C 120 158 122 180 118 196"/>
    <path d="M88 80 C 96 90 100 102 96 116"/>
    <path d="M76 124 C 88 122 100 128 104 138"/>
    <path d="M92 154 C 102 148 114 152 118 160"/>
    <path d="M140 80 C 134 90 132 102 138 114"/>
    <path d="M158 100 C 148 102 138 110 138 122"/>
    <path d="M172 130 C 162 126 148 130 144 140"/>
    <path d="M150 158 C 140 154 130 158 124 168"/>
  </g>
</svg>
