<svg xmlns="http://www.w3.org/2000/svg" viewBox="0 0 240 240" role="img" aria-label="pill blister pack">
  <g fill="none" stroke="currentColor" stroke-width="3" stroke-linecap="round" stroke-linejoin="round">
    <path d="M44 56 C 42 50 48 44 58 44 L 184 46 C 194 46 200 52 198 60 L 196 188 C 196 196 188 202 178 200 L 56 200 C 46 200 40 194 42 186 Z"/>
    <path d="M68 72 C 64 72 62 76 64 80 L 72 96 C 74 100 78 100 80 96 L 88 80 C 90 76 86 72 82 72 Z"/>
    <path d="M118 72 C 114 72 112 76 114 80 L 122 96 C 124 100 128 100 130 96 L 138 80 C 140 76 136 72 132 72 Z"/>
    <path d="M168 72 C 164 72 162 76 164 80 L 170 96 C 172 100 176 100 178 96 L 184 80 C 186 76 182 72 178 72 Z"/>
    <path d="M68 116 C 64 116 62 120 64 124 L 72 140 C 74 144 78 144 80 140 L 88 124 C 90 120 86 116 82 116 Z"/>
    <path d="M118 116 C 114 116 112 120 114 124 L 122 140 C 124 144 128 144 130 140 L 138 124 C 140 120 136 116 132 116 Z"/>
    <path d="M168 116 C 164 116 162 120 164 124 L 170 140 C 172 144 176 144 178 140 L 184 124 C 186 120 182 116 178 116 Z"/>
    <path d="M68 160 C 64 160 62 164 64 168 L 72 184 C 74 188 78 188 80 184 L 88 168 C 90 164 86 160 82 160 Z"/>
    <path d="M118 160 C 114 160 112 164 114 168 L 122 184 C 124 188 128 188 130 184 L 138 168 C 140 164 136 160 132 160 Z"/>
    <path d="M76 80 L 76 90"/>
    <path d="M126 80 L 126 90"/>
    <path d="M174 80 L 174 90"/>
    <path d="M76 124 L 76 134"/>
    <path d="M126 124 L 126 134"/>
    <path d="M174 124 L 174 134"/>
  </g>
</svg>
