<svg xmlns="http://www.w3.org/2000/svg" style="display:none" aria-hidden="true">
  <symbol id="doodle-brain" viewBox="0 0 240 240">
    <g fill="none" stroke="currentColor" stroke-width="3" stroke-linecap="round" stroke-linejoin="round">
      <path d="M118 56 C 90 54 64 72 60 100 C 56 118 64 134 72 144 C 68 156 74 172 90 178 C 100 196 124 202 140 192 C 142 196 148 198 154 196 C 168 198 180 188 180 174 C 192 170 196 156 190 144 C 198 132 196 114 184 104 C 184 86 168 72 150 72 C 144 60 132 54 118 56 Z"/>
      <path d="M118 56 C 116 80 116 108 118 134 C 120 158 122 180 118 196"/>
      <path d="M88 80 C 96 90 100 102 96 116"/>
      <path d="M76 124 C 88 122 100 128 104 138"/>
      <path d="M92 154 C 102 148 114 152 118 160"/>
      <path d="M140 80 C 134 90 132 102 138 114"/>
      <path d="M158 100 C 148 102 138 110 138 122"/>
      <path d="M172 130 C 162 126 148 130 144 140"/>
      <path d="M150 158 C 140 154 130 158 124 168"/>
    </g>
  </symbol>
  <symbol id="doodle-droplet-vitamin" viewBox="0 0 240 240">
    <g fill="none" stroke="currentColor" stroke-width="3" stroke-linecap="round" stroke-linejoin="round">
      <path d="M120 28 C 122 28 124 30 126 34 C 138 56 168 100 178 134 C 188 168 168 200 124 202 C 80 204 56 174 64 138 C 72 102 102 58 114 36 C 116 32 118 28 120 28 Z"/>
      <path d="M120 110 L 120 162"/>
      <path d="M96 136 L 144 136"/>
      <path d="M88 150 C 92 162 100 172 112 178"/>
    </g>
    <circle cx="100" cy="100" r="3" fill="currentColor"/>
  </symbol>
  <symbol id="doodle-lab-coat" viewBox="0 0 240 240">
    <g fill="none" stroke="currentColor" stroke-width="3" stroke-linecap="round" stroke-linejoin="round">
      <path d="M80 36 C 84 32 96 28 120 28 C 144 28 156 32 160 36"/>
      <path d="M80 36 L 60 64 L 50 76 L 56 96"/>
      <path d="M160 36 L 180 64 L 190 76 L 184 96"/>
      <path d="M56 96 L 58 200 C 58 208 64 212 72 212 L 168 212 C 176 212 182 208 182 200 L 184 96"/>
      <path d="M80 36 L 100 62 L 120 80 L 140 62 L 160 36"/>
      <path d="M120 80 L 120 212"/>
      <path d="M100 62 L 96 90"/>
      <path d="M140 62 L 144 90"/>
      <circle cx="112" cy="110" r="2.5" fill="currentColor" stroke="none"/>
      <circle cx="112" cy="138" r="2.5" fill="currentColor" stroke="none"/>
      <circle cx="112" cy="166" r="2.5" fill="currentColor" stroke="none"/>
      <path d="M138 158 L 138 188 L 168 188 L 168 158 Z"/>
      <path d="M148 158 L 148 152 L 158 152 L 158 158"/>
    </g>
  </symbol>
  <symbol id="doodle-leaf" viewBox="0 0 240 240">
    <g fill="none" stroke="currentColor" stroke-width="3" stroke-linecap="round" stroke-linejoin="round">
      <path d="M44 196 C 60 110 110 50 196 44 C 200 86 192 130 168 162 C 142 196 100 208 60 200 C 54 200 48 198 44 196 Z"/>
      <path d="M44 196 C 84 156 130 116 196 44"/>
      <path d="M76 162 C 88 154 100 148 114 144"/>
      <path d="M100 130 C 116 124 132 120 148 118"/>
      <path d="M124 100 C 140 96 156 94 172 94"/>
      <path d="M44 196 L 28 212"/>
    </g>
  </symbol>
  <symbol id="doodle-neuron" viewBox="0 0 240 240">
    <g fill="none" stroke="currentColor" stroke-width="3" stroke-linecap="round" stroke-linejoin="round">
      <path d="M118 92 C 100 86 88 102 92 118 C 96 134 116 140 130 132 C 146 124 148 104 138 96 C 132 91 124 90 118 92 Z"/>
      <path d="M96 104 C 78 96 64 78 56 64"/>
      <path d="M62 70 C 56 60 54 50 58 42"/>
      <path d="M58 78 C 46 76 36 70 30 60"/>
      <path d="M98 86 C 90 70 78 58 64 52"/>
      <path d="M138 102 C 156 96 174 100 188 112"/>
      <path d="M182 110 C 194 110 204 116 210 126"/>
      <path d="M132 124 C 148 132 158 148 158 168"/>
      <path d="M124 130 L 122 156 C 121 172 124 188 132 198"/>
      <path d="M132 198 C 138 206 148 210 158 208"/>
      <path d="M132 198 C 126 206 116 210 106 206"/>
      <path d="M132 198 C 134 208 142 216 152 218"/>
    </g>
    <circle cx="115" cy="112" r="3" fill="currentColor"/>
    <circle cx="125" cy="118" r="2" fill="currentColor"/>
  </symbol>
  <symbol id="doodle-pill-blister" viewBox="0 0 240 240">
    <g fill="none" stroke="currentColor" stroke-width="3" stroke-linecap="round" stroke-linejoin="round">
      <path d="M44 56 C 42 50 48 44 58 44 L 184 46 C 194 46 200 52 198 60 L 196 188 C 196 196 188 202 178 200 L 56 200 C 46 200 40 194 42 186 Z"/>
      <path d="M68 72 C 64 72 62 76 64 80 L 72 96 C 74 100 78 100 80 96 L 88 80 C 90 76 86 72 82 72 Z"/>
      <path d="M118 72 C 114 72 112 76 114 80 L 122 96 C 124 100 128 100 130 96 L 138 80 C 140 76 136 72 132 72 Z"/>
      <path d="M168 72 C 164 72 162 76 164 80 L 170 96 C 172 100 176 100 178 96 L 184 80 C 186 76 182 72 178 72 Z"/>
      <path d="M68 116 C 64 116 62 120 64 124 L 72 140 C 74 144 78 144 80 140 L 88 124 C 90 120 86 116 82 116 Z"/>
      <path d="M118 116 C 114 116 112 120 114 124 L 122 140 C 124 144 128 144 130 140 L 138 124 C 140 120 136 116 132 116 Z"/>
      <path d="M168 116 C 164 116 162 120 164 124 L 170 140 C 172 144 176 144 178 140 L 184 124 C 186 120 182 116 178 116 Z"/>
      <path d="M68 160 C 64 160 62 164 64 168 L 72 184 C 74 188 78 188 80 184 L 88 168 C 90 164 86 160 82 160 Z"/>
      <path d="M118 160 C 114 160 112 164 114 168 L 122 184 C 124 188 128 188 130 184 L 138 168 C 140 164 136 160 132 160 Z"/>
      <path d="M76 80 L 76 90"/>
      <path d="M126 80 L 126 90"/>
      <path d="M174 80 L 174 90"/>
      <path d="M76 124 L 76 134"/>
      <path d="M126 124 L 126 134"/>
      <path d="M174 124 L 174 134"/>
      <path d="M76 168 L 76 178"/>
      <path d="M126 168 L 126 178"/>
    </g>
  </symbol>
  <symbol id="doodle-warning-triangle" viewBox="0 0 240 240">
    <g fill="none" stroke="currentColor" stroke-width="3" stroke-linecap="round" stroke-linejoin="round">
      <path d="M120 32 C 124 32 128 34 130 38 L 212 184 C 216 192 210 200 200 200 L 40 200 C 30 200 24 192 28 184 L 110 38 C 112 34 116 32 120 32 Z"/>
      <path d="M120 88 L 120 144"/>
    </g>
    <circle cx="120" cy="172" r="5" fill="currentColor"/>
  </symbol>
</svg>
